<svg xmlns="http://www.w3.org/2000/svg" width="30" height="30" viewBox="0 0 30 30"><defs><style>.a{fill:#fff;}.b{fill:#f59c86;}</style></defs><g transform="translate(0.333 3)"><rect class="a" width="30" height="30" transform="translate(-0.333 -3)"/><path class="b" d="M51.95,45.4a9,9,0,1,0,9,9A9.012,9.012,0,0,0,51.95,45.4Zm0,16.364A7.364,7.364,0,1,1,59.314,54.4,7.372,7.372,0,0,1,51.95,61.764ZM56.041,54.4a.816.816,0,0,1-.818.818H52.768v2.455a.818.818,0,1,1-1.636,0V55.218H48.677a.818.818,0,1,1,0-1.636h2.455V51.127a.818.818,0,0,1,1.636,0v2.455h2.455A.817.817,0,0,1,56.041,54.4Z" transform="translate(-37.284 -42.4)"/></g></svg>